<svg xmlns="http://www.w3.org/2000/svg" width="20" height="20" viewBox="0 0 20 20">
    <path fill="#293440" d="M10 0c-.425 0-.77.345-.77.77V.9c0 .368-.258.696-.621.755-.176.028-.35.061-.523.1-.357.082-.718-.12-.858-.458l-.051-.12C7.015.786 6.565.598 6.172.762c-.392.162-.58.612-.416 1.005l.05.123c.142.338.03.74-.283.933-.15.094-.298.192-.442.294-.298.214-.711.165-.97-.094l-.094-.093c-.3-.301-.787-.301-1.087 0-.3.3-.3.787 0 1.087l.093.094c.26.259.308.67.094.97-.102.144-.2.291-.294.442-.194.312-.595.426-.934.285l-.122-.05c-.392-.163-.844.023-1.007.415-.162.393.024.842.416 1.005l.12.05c.338.14.542.501.46.858-.039.172-.073.347-.102.523-.058.362-.385.622-.753.622H.77C.345 9.23 0 9.575 0 10c0 .425.345.77.77.77H.9c.368 0 .696.258.755.621.028.176.061.35.1.523.082.357-.12.718-.458.858l-.12.051c-.392.162-.58.612-.416 1.005.162.392.612.58 1.005.416l.123-.05c.34-.142.74-.028.935.283.093.15.19.299.294.443.213.299.165.712-.095.97l-.094.094c-.301.3-.301.788 0 1.088.3.3.787.3 1.087 0l.095-.093c.26-.26.67-.31.97-.096.144.103.292.202.442.295.312.194.427.596.286.935l-.051.122c-.163.392.024.843.416 1.006.392.163.842-.024 1.005-.416l.05-.12c.14-.338.5-.541.857-.46.173.04.347.074.523.102.361.057.62.384.62.752v.132c0 .424.345.769.77.769.425 0 .77-.345.77-.77V19.1c0-.368.258-.696.621-.755.176-.028.35-.061.523-.1.357-.082.718.12.858.458l.051.12c.162.392.612.58 1.005.416.392-.162.58-.612.416-1.005l-.05-.123c-.142-.34-.028-.74.283-.935.15-.093.299-.19.443-.294.299-.213.712-.165.97.095l.094.094c.3.301.788.301 1.088 0 .3-.3.3-.787 0-1.087l-.093-.095c-.26-.26-.31-.67-.096-.97.103-.144.202-.292.295-.442.194-.312.596-.427.935-.286l.122.051c.392.163.843-.024 1.006-.416.163-.392-.024-.842-.416-1.005l-.12-.05c-.338-.14-.541-.5-.46-.857.04-.173.074-.347.102-.523.057-.361.384-.62.752-.62h.132c.424 0 .769-.345.769-.77 0-.425-.345-.77-.77-.77H19.1c-.368 0-.696-.258-.755-.621-.028-.176-.061-.35-.1-.523-.082-.357.12-.718.458-.858l.12-.051c.392-.162.58-.612.416-1.005-.162-.392-.612-.58-1.005-.416l-.123.05c-.34.142-.74.028-.935-.283-.093-.15-.19-.299-.294-.443-.213-.299-.165-.712.095-.97l.094-.094c.301-.3.301-.788 0-1.088-.3-.3-.787-.3-1.087 0l-.094.095c-.259.26-.672.31-.97.096-.145-.103-.293-.202-.443-.296-.312-.194-.425-.595-.284-.934l.05-.122c.163-.392-.023-.844-.415-1.007-.393-.162-.842.024-1.005.416l-.052.12c-.14.338-.5.542-.857.46-.173-.039-.347-.073-.523-.102-.362-.058-.62-.385-.62-.753V.77C10.77.345 10.424 0 10 0zm-.77 3.899v3.024c0 .036.003.071.008.107-.552.141-1.046.424-1.433.819-.027-.02-.056-.037-.086-.053L5.102 6.285c.977-1.287 2.446-2.176 4.129-2.386zm1.54 0c1.682.21 3.15 1.1 4.128 2.386L12.28 7.796c-.03.016-.059.033-.086.053-.387-.395-.88-.678-1.432-.82.005-.035.007-.07.006-.106V3.9zM4.326 7.613L6.95 9.127c.031.02.064.037.098.051-.073.263-.125.536-.125.822 0 .287.053.56.126.823-.034.014-.067.031-.099.05l-2.623 1.514c-.31-.734-.48-1.54-.48-2.387s.17-1.653.48-2.387zm11.346 0c.31.734.48 1.54.48 2.387s-.17 1.653-.48 2.387l-2.623-1.514c-.032-.019-.065-.036-.1-.05.074-.263.127-.536.127-.823 0-.286-.052-.558-.125-.82.034-.015.067-.033.098-.053l2.623-1.514zM10 8.846c.637 0 1.154.517 1.154 1.154 0 .637-.517 1.154-1.154 1.154-.637 0-1.154-.517-1.154-1.154 0-.637.517-1.154 1.154-1.154zm-2.198 3.302c.387.397.883.68 1.436.822-.005.036-.007.071-.007.107V16.1c-1.683-.21-3.152-1.1-4.129-2.386l2.617-1.511c.03-.017.057-.035.083-.056zm4.396 0c.026.02.054.04.083.056l2.617 1.511c-.977 1.287-2.446 2.176-4.129 2.386v-3.024c0-.036-.002-.071-.007-.107.553-.142 1.049-.425 1.436-.822z"/>
</svg>
