<svg xmlns="http://www.w3.org/2000/svg" width="20" height="20" viewBox="0 0 20 20">
    <path fill="#293440" d="M.91 0C.406 0 0 .39 0 .87v13.913c0 .48.407.87.91.87H7.27v1.738h-3.79c-.23 0-.452.085-.62.236L1.052 19.25c-.301.269-.1.751.312.751h17.27c.411 0 .613-.483.312-.752l-1.807-1.622c-.17-.15-.391-.235-.622-.235h-3.793v-1.739h6.366c.502 0 .909-.39.909-.87V.87c0-.48-.407-.87-.91-.87H.91zm.908 1.74h16.364v12.173H1.818V1.739zm5.437 2.6c-.236.006-.46.1-.625.263L3.903 7.21c-.355.34-.355.89 0 1.23L6.63 11.05c.228.227.567.318.885.239.319-.08.568-.318.65-.622.084-.305-.012-.629-.25-.847L5.831 7.826l2.084-1.994c.27-.25.35-.632.204-.962-.146-.33-.49-.541-.864-.53zm5.463 0c-.37 0-.703.214-.842.542-.139.328-.057.703.209.95l2.084 1.994-2.084 1.994c-.238.218-.334.542-.25.847.082.304.331.542.65.622.318.08.657-.012.885-.24l2.727-2.608c.355-.34.355-.89 0-1.23L13.37 4.603c-.171-.169-.406-.264-.652-.264z"/>
</svg>
