<svg xmlns="http://www.w3.org/2000/svg" width="20" height="20" viewBox="0 0 20 20">
    <path fill="#293440" d="M13.045 0c-1.78 0-3.559.68-4.917 2.037L6.402 3.76c-.977.977-2.138 1.738-3.406 2.256L13.98 16.998c.518-1.267 1.28-2.427 2.256-3.404l1.727-1.726c2.32-2.32 2.65-5.867 1.007-8.545.626-.279 1.03-.9 1.03-1.585C20 .778 19.222 0 18.262 0c-.686 0-1.307.404-1.586 1.03C15.565.348 14.306 0 13.045 0zM.869 6.075c-.354 0-.672.214-.805.542-.133.327-.054.703.199.95l4.714 4.713c-.889.293-1.49 1.123-1.492 2.059 0 1.2.973 2.172 2.173 2.172.937 0 1.767-.601 2.061-1.49l4.713 4.712c.218.227.542.318.846.239.305-.08.543-.317.622-.622.08-.304-.012-.628-.24-.846L1.493 6.338c-.164-.168-.388-.263-.623-.263z"/>
</svg>
