<svg xmlns="http://www.w3.org/2000/svg" width="20" height="14" viewBox="0 0 20 14">
    <path fill="#293440" d="M2.008 0C1.272 0 .676.597.676 1.333v9.334c-.24-.004-.464.123-.585.33-.121.208-.121.465 0 .672.12.208.344.334.585.331h2.032c.164 1.124 1.131 2 2.297 2 1.165 0 2.132-.876 2.297-2H13.364c.165 1.124 1.132 2 2.297 2 1.166 0 2.133-.876 2.298-2h1.365c.24.003.464-.123.585-.33.121-.208.121-.465 0-.673-.12-.207-.344-.334-.585-.33V7.333h-3.996V4.667c0-.368.299-.667.666-.667h1.903l-.225-.525c-.21-.49-.69-.808-1.224-.808h-4.45V1.333C11.998.597 11.402 0 10.666 0H2.008zm6.66 2.667c.17 0 .34.065.47.195.261.26.261.682 0 .943l-3.33 3.333c-.13.13-.3.195-.47.195-.17 0-.341-.065-.471-.195L3.535 5.805c-.26-.261-.26-.682 0-.943.26-.26.681-.26.942 0l.86.862 2.86-2.862c.13-.13.3-.195.47-.195zm-3.663 8c.56 0 .999.44.999 1s-.44 1-1 1c-.559 0-.998-.44-.998-1s.44-1 .999-1zm10.656 0c.56 0 1 .44 1 1s-.44 1-1 1-.999-.44-.999-1 .44-1 1-1z"/>
</svg>
