<svg xmlns="http://www.w3.org/2000/svg" width="20" height="20" viewBox="0 0 20 20">
    <path fill="#293440" d="M10 0c-.218 0-.427.085-.583.238L.327 7.673l-.03.024-.032.026v.002C.096 7.882 0 8.102 0 8.333c0 .46.373.834.833.834h.834v9.166c0 .921.745 1.667 1.666 1.667h13.334c.92 0 1.666-.746 1.666-1.667V9.167h.834c.46 0 .833-.373.833-.834 0-.231-.096-.452-.265-.61l-.013-.01-.057-.047-1.332-1.089V3.333c0-.46-.373-.833-.833-.833h-.833c-.46 0-.834.373-.834.833v1.2L10.565.223C10.41.08 10.21.001 10 0zm2.5 10.833h3.333V17.5H12.5v-6.667z"/>
</svg>
