<svg xmlns="http://www.w3.org/2000/svg" width="20" height="20" viewBox="0 0 20 20">
    <path fill="#293440" d="M.8 0C.358 0 0 .345 0 .77v16.153C0 18.623 1.433 20 3.2 20H16.8c1.767 0 3.2-1.378 3.2-3.077V6.153c0-.424-.358-.768-.8-.768h-1.6v11.538c0 .425-.358.77-.8.77-.442 0-.8-.345-.8-.77V.77C16 .345 15.642 0 15.2 0H.8zm1.6 3.077h11.2v2.308H2.4V3.077zm0 5.385h4.8V10H2.4V8.462zm6.4 0h4.8V10H8.8V8.462zm-6.4 3.076h4.8v1.539H2.4v-1.539zm6.4 0h4.8v1.539H8.8v-1.539zm-6.4 3.077h4.8v1.539H2.4v-1.539zm6.4 0h4.8v1.539H8.8v-1.539z"/>
</svg>
