<svg xmlns="http://www.w3.org/2000/svg" width="16" height="20" viewBox="0 0 16 20">
    <path fill="#293440" d="M14.4 0H1.6C.716 0 0 .688 0 1.538v16.924C0 19.312.716 20 1.6 20h12.8c.884 0 1.6-.688 1.6-1.538V1.538C16 .688 15.284 0 14.4 0zm-8 16.923H3.2c-.442 0-.8-.345-.8-.77 0-.424.358-.768.8-.768h3.2c.442 0 .8.344.8.769 0 .424-.358.77-.8.77zm6.4 0c-.442 0-.8-.345-.8-.77 0-.424.358-.768.8-.768.442 0 .8.344.8.769 0 .424-.358.77-.8.77zm-6.4-3.846H3.2c-.442 0-.8-.345-.8-.77 0-.424.358-.769.8-.769h3.2c.442 0 .8.345.8.77 0 .424-.358.769-.8.769zm0-3.846H3.2c-.442 0-.8-.345-.8-.77 0-.424.358-.769.8-.769h3.2c.442 0 .8.345.8.77 0 .424-.358.769-.8.769zm2.4 6.923V4.615c0-.424.358-.769.8-.769.442 0 .8.345.8.77v11.538c0 .424-.358.77-.8.77-.442 0-.8-.346-.8-.77zm4-6.923c-.442 0-.8-.345-.8-.77 0-.424.358-.769.8-.769.442 0 .8.345.8.77 0 .424-.358.769-.8.769zM6.4 5.385H3.2c-.442 0-.8-.345-.8-.77 0-.424.358-.769.8-.769h3.2c.442 0 .8.345.8.77 0 .424-.358.769-.8.769zm6.4 0c-.442 0-.8-.345-.8-.77 0-.424.358-.769.8-.769.442 0 .8.345.8.77 0 .424-.358.769-.8.769zm0 7.692c-.442 0-.8-.345-.8-.77 0-.424.358-.769.8-.769.442 0 .8.345.8.77 0 .424-.358.769-.8.769z"/>
</svg>
