<svg xmlns="http://www.w3.org/2000/svg" width="20" height="20" viewBox="0 0 20 20">
    <path fill="#293440" d="M10.002 0c-.366 0-.733.179-.948.536l-.418.698c-.18.3-.476.502-.813.595l-.012.003c-.34.093-.702.064-1.01-.107l-.713-.394c-.73-.405-1.627.113-1.64.947l-.014.823c-.006.349-.161.672-.407.918l-.008.008c-.246.247-.57.402-.918.407l-.822.013c-.834.015-1.353.912-.948 1.641l.395.714c.17.307.199.667.106 1.005l-.006.018c-.092.335-.292.63-.59.808l-.7.42c-.715.429-.715 1.466 0 1.894l.7.42c.298.178.499.473.59.808l.006.018c.093.338.064.698-.106 1.005l-.395.715c-.404.73.115 1.627.948 1.64l.822.014c.349.007.672.161.918.408l.008.007c.247.246.402.57.407.918l.013.822c.014.834.912 1.353 1.641.948l.714-.397c.306-.17.666-.198 1.005-.105l.018.006c.335.092.63.293.808.59l.42.7c.429.715 1.465.715 1.894 0l.42-.7c.178-.297.471-.499.806-.59l.02-.006c.337-.093.696-.065 1.003.105l.714.397c.73.405 1.627-.114 1.64-.948l.014-.822c.006-.348.161-.672.407-.918l.008-.007c.246-.247.57-.402.918-.408l.823-.013c.834-.014 1.353-.912.948-1.64l-.397-.715c-.17-.306-.198-.666-.105-1.005l.006-.018c.092-.334.293-.63.59-.808l.7-.42c.717-.429.717-1.466.002-1.895l-.698-.42c-.298-.178-.5-.472-.59-.806l-.007-.02c-.093-.338-.065-.697.105-1.004l.397-.713c.405-.73-.114-1.627-.948-1.641l-.823-.014c-.349-.006-.672-.16-.918-.407l-.008-.007c-.247-.246-.402-.57-.407-.918l-.013-.824c-.015-.835-.912-1.353-1.641-.948l-.714.395c-.306.17-.666.199-1.005.106l-.018-.006c-.335-.092-.63-.292-.808-.59l-.42-.7C10.735.18 10.369 0 10.003 0zM7.385 5.72c1.21 0 2 .831 2 2.108 0 1.272-.79 2.108-2 2.108-1.203 0-2-.836-2-2.108 0-1.272.791-2.108 2-2.108zm4.35.204h1.88l-3.113 4.299-2.18 3.854H6.435L9.5 9.799l2.237-3.875zm-4.35 1.012c-.345 0-.553.328-.553.888 0 .553.208.886.553.886.339 0 .548-.333.548-.886 0-.565-.198-.888-.548-.888zm5.237 3.13c1.203 0 1.994.83 1.994 2.101 0 1.278-.79 2.113-1.994 2.113-1.203 0-1.994-.836-1.994-2.113 0-1.27.791-2.102 1.994-2.102zm0 1.215c-.344 0-.554.327-.554.886 0 .554.21.888.554.888.34 0 .547-.334.547-.888 0-.565-.203-.886-.547-.886z"/>
</svg>
