<svg xmlns="http://www.w3.org/2000/svg" width="20" height="14" viewBox="0 0 20 14">
    <path fill="#293440" d="M6.429 0C5.639 0 5 .626 5 1.4v11.2c0 .774.64 1.4 1.429 1.4h7.142c.79 0 1.429-.626 1.429-1.4V1.4c0-.773-.64-1.4-1.429-1.4H6.43zm-5 1.4C.639 1.4 0 2.026 0 2.8v8.4c0 .773.64 1.4 1.429 1.4H3.57v-2.1H1.43c0-2.057 1.842-1.473 2.142-2.357v-.59s-.56-.517-.6-.87c0 0-.292-.107-.292-.553 0-.23.111-.283.111-.283s-.245-.333-.245-.762c0-.747.423-1.248 1.028-1.463V1.4H1.429zm15 0v2.45c.615 0 .982.55.982 1.266 0 .357-.201.731-.201.731s.111.038.111.283c0 .355-.291.553-.291.553-.04.353-.601.87-.601.87v.589c.3.884 2.142.294 2.142 2.357H16.43v2.1h2.142c.79 0 1.429-.627 1.429-1.4V2.8c0-.774-.64-1.4-1.429-1.4H16.43zM10 3.5c.453 0 .714.35.714.35.616 0 .982.55.982 1.266 0 .357-.2.731-.2.731s.111.038.111.283c0 .355-.291.553-.291.553-.041.353-.602.87-.602.87v.589c.301.884 2.143.294 2.143 2.357H7.143c0-2.055 1.842-1.472 2.143-2.356v-.59s-.56-.517-.602-.87c0 0-.291-.107-.291-.553 0-.23.111-.283.111-.283s-.245-.333-.245-.762c0-1.017.78-1.585 1.741-1.585z"/>
</svg>
